<svg id="visual" viewBox="0 0 900 450" width="900" height="450" xmlns="http://www.w3.org/2000/svg" xmlns:xlink="http://www.w3.org/1999/xlink" version="1.1"><rect x="0" y="0" width="900" height="450" fill="#B5E9DB"></rect><path d="M0 391L21.5 396.7C43 402.3 86 413.7 128.8 419.5C171.7 425.3 214.3 425.7 257.2 421.8C300 418 343 410 385.8 406.2C428.7 402.3 471.3 402.7 514.2 400.5C557 398.3 600 393.7 642.8 396.7C685.7 399.7 728.3 410.3 771.2 413.7C814 417 857 413 878.5 411L900 409L900 451L878.5 451C857 451 814 451 771.2 451C728.3 451 685.7 451 642.8 451C600 451 557 451 514.2 451C471.3 451 428.7 451 385.8 451C343 451 300 451 257.2 451C214.3 451 171.7 451 128.8 451C86 451 43 451 21.5 451L0 451Z" fill="#E0EEFF" stroke-linecap="round" stroke-linejoin="miter"></path></svg>